<?xml version="1.0" standalone="no"?>
<!DOCTYPE svg PUBLIC "-//W3C//DTD SVG 20010904//EN"
 "http://www.w3.org/TR/2001/REC-SVG-20010904/DTD/svg10.dtd">
<svg version="1.0" xmlns="http://www.w3.org/2000/svg"
 width="300.000000pt" height="300.000000pt" viewBox="0 0 300.000000 300.000000"
 preserveAspectRatio="xMidYMid meet">
<metadata>
Created by potrace 1.11, written by Peter Selinger 2001-2013
</metadata>
<g transform="translate(0.000000,300.000000) scale(0.100000,-0.100000)"
fill="#000000" stroke="none">
<path d="M1487 2803 c-4 -3 -26 -7 -49 -8 -24 -2 -63 -6 -88 -10 -25 -4 -58
-9 -75 -11 -108 -13 -120 -17 -330 -104 -84 -36 -121 -58 -210 -128 -5 -4 -39
-30 -75 -57 -59 -44 -97 -80 -125 -117 -6 -7 -47 -60 -91 -118 -69 -91 -89
-126 -147 -265 -36 -88 -69 -182 -72 -210 -3 -27 -8 -61 -10 -75 -24 -137 -24
-257 0 -420 1 -8 5 -42 10 -74 4 -33 18 -84 31 -113 29 -64 29 -73 7 -73 -67
0 -150 -58 -171 -119 -6 -16 -9 -51 -8 -78 4 -67 38 -117 102 -149 48 -24 57
-25 174 -20 67 3 125 8 128 11 3 3 20 -16 39 -42 33 -48 44 -58 219 -192 81
-63 171 -117 202 -121 4 -1 27 -10 51 -21 24 -10 46 -19 48 -19 2 0 29 -11 58
-25 30 -13 75 -27 100 -30 25 -3 66 -7 92 -11 26 -3 50 -7 54 -10 20 -12 213
-11 299 1 52 7 117 16 143 19 27 3 63 12 80 20 18 8 88 38 157 66 113 47 212
109 310 192 8 7 31 25 51 40 20 14 58 55 85 90 27 35 52 64 56 66 4 2 8 8 8
13 0 6 10 20 23 33 17 18 36 25 82 29 65 5 104 21 154 63 38 32 91 107 91 129
0 9 -30 46 -68 83 l-67 67 12 36 c6 20 14 67 18 105 4 38 8 76 10 84 6 22 18
131 18 160 0 28 -11 131 -18 170 -2 14 -7 50 -10 80 -8 74 -8 74 -78 245 -54
132 -72 164 -151 270 -50 66 -96 126 -102 132 -7 7 -14 16 -16 20 -1 5 -28 27
-58 50 -30 24 -59 46 -65 51 -87 70 -175 127 -226 148 -70 28 -100 41 -169 72
-48 21 -114 40 -140 40 -8 0 -33 3 -55 6 -65 9 -107 15 -165 22 -30 3 -58 8
-61 10 -3 2 -9 1 -12 -3z"/>
</g>
</svg>
